<?xml version="1.0" encoding="UTF-8"?>
<svg xmlns="http://www.w3.org/2000/svg" xmlns:xlink="http://www.w3.org/1999/xlink" width="117pt" height="117pt" viewBox="0 0 117 117" version="1.1">
<g id="surface1">
<path style="fill:none;stroke-width:7;stroke-linecap:round;stroke-linejoin:round;stroke:rgb(0%,0%,0%);stroke-opacity:1;stroke-miterlimit:10;" d="M 20 1150.78125 L 1153.867188 1150.78125 " transform="matrix(0.1,0,0,-0.1,0,117)"/>
<path style="fill:none;stroke-width:7;stroke-linecap:round;stroke-linejoin:round;stroke:rgb(0%,0%,0%);stroke-opacity:1;stroke-miterlimit:10;" d="M 20 1150.78125 L 20 16.953125 " transform="matrix(0.1,0,0,-0.1,0,117)"/>
<path style="fill:none;stroke-width:7;stroke-linecap:round;stroke-linejoin:round;stroke:rgb(0%,0%,0%);stroke-opacity:1;stroke-miterlimit:10;" d="M 20 867.34375 L 1153.867188 867.34375 " transform="matrix(0.1,0,0,-0.1,0,117)"/>
<path style="fill:none;stroke-width:7;stroke-linecap:round;stroke-linejoin:round;stroke:rgb(0%,0%,0%);stroke-opacity:1;stroke-miterlimit:10;" d="M 303.476562 1150.78125 L 303.476562 16.953125 " transform="matrix(0.1,0,0,-0.1,0,117)"/>
<path style="fill:none;stroke-width:7;stroke-linecap:round;stroke-linejoin:round;stroke:rgb(0%,0%,0%);stroke-opacity:1;stroke-miterlimit:10;" d="M 20 583.867188 L 1153.867188 583.867188 " transform="matrix(0.1,0,0,-0.1,0,117)"/>
<path style="fill:none;stroke-width:7;stroke-linecap:round;stroke-linejoin:round;stroke:rgb(0%,0%,0%);stroke-opacity:1;stroke-miterlimit:10;" d="M 586.914062 1150.78125 L 586.914062 16.953125 " transform="matrix(0.1,0,0,-0.1,0,117)"/>
<path style="fill:none;stroke-width:7;stroke-linecap:round;stroke-linejoin:round;stroke:rgb(0%,0%,0%);stroke-opacity:1;stroke-miterlimit:10;" d="M 20 300.390625 L 1153.867188 300.390625 " transform="matrix(0.1,0,0,-0.1,0,117)"/>
<path style="fill:none;stroke-width:7;stroke-linecap:round;stroke-linejoin:round;stroke:rgb(0%,0%,0%);stroke-opacity:1;stroke-miterlimit:10;" d="M 870.390625 1150.78125 L 870.390625 16.953125 " transform="matrix(0.1,0,0,-0.1,0,117)"/>
<path style="fill:none;stroke-width:7;stroke-linecap:round;stroke-linejoin:round;stroke:rgb(0%,0%,0%);stroke-opacity:1;stroke-miterlimit:10;" d="M 20 16.953125 L 1153.867188 16.953125 " transform="matrix(0.1,0,0,-0.1,0,117)"/>
<path style="fill:none;stroke-width:7;stroke-linecap:round;stroke-linejoin:round;stroke:rgb(0%,0%,0%);stroke-opacity:1;stroke-miterlimit:10;" d="M 1153.867188 1150.78125 L 1153.867188 16.953125 " transform="matrix(0.1,0,0,-0.1,0,117)"/>
<path style="fill:none;stroke-width:28;stroke-linecap:round;stroke-linejoin:round;stroke:rgb(0%,0%,0%);stroke-opacity:1;stroke-miterlimit:10;" d="M 445.195312 1009.0625 L 728.671875 1009.0625 " transform="matrix(0.1,0,0,-0.1,0,117)"/>
<path style="fill:none;stroke-width:28;stroke-linecap:round;stroke-linejoin:round;stroke:rgb(0%,0%,0%);stroke-opacity:1;stroke-miterlimit:10;" d="M 445.195312 1009.0625 L 445.195312 725.585938 " transform="matrix(0.1,0,0,-0.1,0,117)"/>
<path style="fill:none;stroke-width:28;stroke-linecap:round;stroke-linejoin:round;stroke:rgb(0%,0%,0%);stroke-opacity:1;stroke-miterlimit:10;" d="M 728.671875 1009.0625 L 445.195312 1009.0625 " transform="matrix(0.1,0,0,-0.1,0,117)"/>
<path style="fill:none;stroke-width:28;stroke-linecap:round;stroke-linejoin:round;stroke:rgb(0%,0%,0%);stroke-opacity:1;stroke-miterlimit:10;" d="M 728.671875 1009.0625 L 728.671875 725.585938 " transform="matrix(0.1,0,0,-0.1,0,117)"/>
<path style="fill:none;stroke-width:28;stroke-linecap:round;stroke-linejoin:round;stroke:rgb(0%,0%,0%);stroke-opacity:1;stroke-miterlimit:10;" d="M 445.195312 725.585938 L 445.195312 1009.0625 " transform="matrix(0.1,0,0,-0.1,0,117)"/>
<path style="fill:none;stroke-width:28;stroke-linecap:round;stroke-linejoin:round;stroke:rgb(0%,0%,0%);stroke-opacity:1;stroke-miterlimit:10;" d="M 445.195312 725.585938 L 728.671875 725.585938 " transform="matrix(0.1,0,0,-0.1,0,117)"/>
<path style="fill:none;stroke-width:28;stroke-linecap:round;stroke-linejoin:round;stroke:rgb(0%,0%,0%);stroke-opacity:1;stroke-miterlimit:10;" d="M 445.195312 725.585938 L 445.195312 442.148438 " transform="matrix(0.1,0,0,-0.1,0,117)"/>
<path style="fill:none;stroke-width:28;stroke-linecap:round;stroke-linejoin:round;stroke:rgb(0%,0%,0%);stroke-opacity:1;stroke-miterlimit:10;" d="M 728.671875 725.585938 L 728.671875 1009.0625 " transform="matrix(0.1,0,0,-0.1,0,117)"/>
<path style="fill:none;stroke-width:28;stroke-linecap:round;stroke-linejoin:round;stroke:rgb(0%,0%,0%);stroke-opacity:1;stroke-miterlimit:10;" d="M 728.671875 725.585938 L 445.195312 725.585938 " transform="matrix(0.1,0,0,-0.1,0,117)"/>
<path style="fill:none;stroke-width:28;stroke-linecap:round;stroke-linejoin:round;stroke:rgb(0%,0%,0%);stroke-opacity:1;stroke-miterlimit:10;" d="M 445.195312 442.148438 L 445.195312 725.585938 " transform="matrix(0.1,0,0,-0.1,0,117)"/>
<path style="fill:none;stroke-width:28;stroke-linecap:round;stroke-linejoin:round;stroke:rgb(0%,0%,0%);stroke-opacity:1;stroke-miterlimit:10;" d="M 445.195312 442.148438 L 445.195312 158.671875 " transform="matrix(0.1,0,0,-0.1,0,117)"/>
<path style="fill:none;stroke-width:28;stroke-linecap:round;stroke-linejoin:round;stroke:rgb(0%,0%,0%);stroke-opacity:1;stroke-miterlimit:10;" d="M 445.195312 158.671875 L 445.195312 442.148438 " transform="matrix(0.1,0,0,-0.1,0,117)"/>
<path style=" stroke:none;fill-rule:nonzero;fill:rgb(0%,0%,0%);fill-opacity:1;" d="M 50.898438 16.09375 C 50.898438 17.785156 50.226562 19.40625 49.03125 20.601562 C 47.832031 21.800781 46.210938 22.472656 44.519531 22.472656 C 42.828125 22.472656 41.207031 21.800781 40.011719 20.601562 C 38.8125 19.40625 38.140625 17.785156 38.140625 16.09375 C 38.140625 14.402344 38.8125 12.78125 40.011719 11.585938 C 41.207031 10.386719 42.828125 9.714844 44.519531 9.714844 C 46.210938 9.714844 47.832031 10.386719 49.03125 11.585938 C 50.226562 12.78125 50.898438 14.402344 50.898438 16.09375 "/>
<path style=" stroke:none;fill-rule:nonzero;fill:rgb(100%,100%,100%);fill-opacity:1;" d="M 48.773438 16.09375 C 48.773438 17.222656 48.324219 18.300781 47.527344 19.097656 C 46.730469 19.898438 45.648438 20.34375 44.519531 20.34375 C 43.390625 20.34375 42.308594 19.898438 41.511719 19.097656 C 40.714844 18.300781 40.269531 17.222656 40.269531 16.09375 C 40.269531 14.964844 40.714844 13.882812 41.511719 13.085938 C 42.308594 12.289062 43.390625 11.839844 44.519531 11.839844 C 45.648438 11.839844 46.730469 12.289062 47.527344 13.085938 C 48.324219 13.882812 48.773438 14.964844 48.773438 16.09375 "/>
<path style=" stroke:none;fill-rule:nonzero;fill:rgb(0%,0%,0%);fill-opacity:1;" d="M 79.242188 16.09375 C 79.242188 17.785156 78.570312 19.40625 77.375 20.601562 C 76.179688 21.800781 74.558594 22.472656 72.867188 22.472656 C 71.175781 22.472656 69.550781 21.800781 68.355469 20.601562 C 67.160156 19.40625 66.488281 17.785156 66.488281 16.09375 C 66.488281 14.402344 67.160156 12.78125 68.355469 11.585938 C 69.550781 10.386719 71.175781 9.714844 72.867188 9.714844 C 74.558594 9.714844 76.179688 10.386719 77.375 11.585938 C 78.570312 12.78125 79.242188 14.402344 79.242188 16.09375 "/>
<path style=" stroke:none;fill-rule:nonzero;fill:rgb(100%,100%,100%);fill-opacity:1;" d="M 77.117188 16.09375 C 77.117188 17.222656 76.667969 18.300781 75.871094 19.097656 C 75.074219 19.898438 73.992188 20.34375 72.867188 20.34375 C 71.738281 20.34375 70.65625 19.898438 69.859375 19.097656 C 69.0625 18.300781 68.613281 17.222656 68.613281 16.09375 C 68.613281 14.964844 69.0625 13.882812 69.859375 13.085938 C 70.65625 12.289062 71.738281 11.839844 72.867188 11.839844 C 73.992188 11.839844 75.074219 12.289062 75.871094 13.085938 C 76.667969 13.882812 77.117188 14.964844 77.117188 16.09375 "/>
<path style=" stroke:none;fill-rule:nonzero;fill:rgb(0%,0%,0%);fill-opacity:1;" d="M 50.898438 44.441406 C 50.898438 46.132812 50.226562 47.753906 49.03125 48.949219 C 47.832031 50.144531 46.210938 50.816406 44.519531 50.816406 C 42.828125 50.816406 41.207031 50.144531 40.011719 48.949219 C 38.8125 47.753906 38.140625 46.132812 38.140625 44.441406 C 38.140625 42.746094 38.8125 41.125 40.011719 39.929688 C 41.207031 38.734375 42.828125 38.0625 44.519531 38.0625 C 46.210938 38.0625 47.832031 38.734375 49.03125 39.929688 C 50.226562 41.125 50.898438 42.746094 50.898438 44.441406 "/>
<path style=" stroke:none;fill-rule:nonzero;fill:rgb(100%,100%,100%);fill-opacity:1;" d="M 48.773438 44.441406 C 48.773438 45.566406 48.324219 46.648438 47.527344 47.445312 C 46.730469 48.242188 45.648438 48.691406 44.519531 48.691406 C 43.390625 48.691406 42.308594 48.242188 41.511719 47.445312 C 40.714844 46.648438 40.269531 45.566406 40.269531 44.441406 C 40.269531 43.3125 40.714844 42.230469 41.511719 41.433594 C 42.308594 40.636719 43.390625 40.1875 44.519531 40.1875 C 45.648438 40.1875 46.730469 40.636719 47.527344 41.433594 C 48.324219 42.230469 48.773438 43.3125 48.773438 44.441406 "/>
<path style=" stroke:none;fill-rule:nonzero;fill:rgb(0%,0%,0%);fill-opacity:1;" d="M 79.242188 44.441406 C 79.242188 46.132812 78.570312 47.753906 77.375 48.949219 C 76.179688 50.144531 74.558594 50.816406 72.867188 50.816406 C 71.175781 50.816406 69.550781 50.144531 68.355469 48.949219 C 67.160156 47.753906 66.488281 46.132812 66.488281 44.441406 C 66.488281 42.746094 67.160156 41.125 68.355469 39.929688 C 69.550781 38.734375 71.175781 38.0625 72.867188 38.0625 C 74.558594 38.0625 76.179688 38.734375 77.375 39.929688 C 78.570312 41.125 79.242188 42.746094 79.242188 44.441406 "/>
<path style=" stroke:none;fill-rule:nonzero;fill:rgb(100%,100%,100%);fill-opacity:1;" d="M 77.117188 44.441406 C 77.117188 45.566406 76.667969 46.648438 75.871094 47.445312 C 75.074219 48.242188 73.992188 48.691406 72.867188 48.691406 C 71.738281 48.691406 70.65625 48.242188 69.859375 47.445312 C 69.0625 46.648438 68.613281 45.566406 68.613281 44.441406 C 68.613281 43.3125 69.0625 42.230469 69.859375 41.433594 C 70.65625 40.636719 71.738281 40.1875 72.867188 40.1875 C 73.992188 40.1875 75.074219 40.636719 75.871094 41.433594 C 76.667969 42.230469 77.117188 43.3125 77.117188 44.441406 "/>
<path style=" stroke:none;fill-rule:nonzero;fill:rgb(0%,0%,0%);fill-opacity:1;" d="M 50.898438 72.785156 C 50.898438 74.476562 50.226562 76.101562 49.03125 77.296875 C 47.832031 78.492188 46.210938 79.164062 44.519531 79.164062 C 42.828125 79.164062 41.207031 78.492188 40.011719 77.296875 C 38.8125 76.101562 38.140625 74.476562 38.140625 72.785156 C 38.140625 71.09375 38.8125 69.472656 40.011719 68.277344 C 41.207031 67.082031 42.828125 66.40625 44.519531 66.40625 C 46.210938 66.40625 47.832031 67.082031 49.03125 68.277344 C 50.226562 69.472656 50.898438 71.09375 50.898438 72.785156 "/>
<path style=" stroke:none;fill-rule:nonzero;fill:rgb(100%,100%,100%);fill-opacity:1;" d="M 48.773438 72.785156 C 48.773438 73.914062 48.324219 74.996094 47.527344 75.792969 C 46.730469 76.589844 45.648438 77.039062 44.519531 77.039062 C 43.390625 77.039062 42.308594 76.589844 41.511719 75.792969 C 40.714844 74.996094 40.269531 73.914062 40.269531 72.785156 C 40.269531 71.65625 40.714844 70.578125 41.511719 69.78125 C 42.308594 68.980469 43.390625 68.535156 44.519531 68.535156 C 45.648438 68.535156 46.730469 68.980469 47.527344 69.78125 C 48.324219 70.578125 48.773438 71.65625 48.773438 72.785156 "/>
<path style=" stroke:none;fill-rule:nonzero;fill:rgb(0%,0%,0%);fill-opacity:1;" d="M 50.898438 101.132812 C 50.898438 102.824219 50.226562 104.445312 49.03125 105.640625 C 47.832031 106.839844 46.210938 107.511719 44.519531 107.511719 C 42.828125 107.511719 41.207031 106.839844 40.011719 105.640625 C 38.8125 104.445312 38.140625 102.824219 38.140625 101.132812 C 38.140625 99.441406 38.8125 97.820312 40.011719 96.621094 C 41.207031 95.425781 42.828125 94.753906 44.519531 94.753906 C 46.210938 94.753906 47.832031 95.425781 49.03125 96.621094 C 50.226562 97.820312 50.898438 99.441406 50.898438 101.132812 "/>
<path style=" stroke:none;fill-rule:nonzero;fill:rgb(100%,100%,100%);fill-opacity:1;" d="M 48.773438 101.132812 C 48.773438 102.261719 48.324219 103.34375 47.527344 104.140625 C 46.730469 104.9375 45.648438 105.386719 44.519531 105.386719 C 43.390625 105.386719 42.308594 104.9375 41.511719 104.140625 C 40.714844 103.34375 40.269531 102.261719 40.269531 101.132812 C 40.269531 100.003906 40.714844 98.921875 41.511719 98.125 C 42.308594 97.328125 43.390625 96.878906 44.519531 96.878906 C 45.648438 96.878906 46.730469 97.328125 47.527344 98.125 C 48.324219 98.921875 48.773438 100.003906 48.773438 101.132812 "/>
</g>
</svg>
