<?xml version="1.0" encoding="UTF-8"?>
<svg xmlns="http://www.w3.org/2000/svg" xmlns:xlink="http://www.w3.org/1999/xlink" width="117pt" height="117pt" viewBox="0 0 117 117" version="1.1">
<g id="surface1">
<path style="fill:none;stroke-width:7;stroke-linecap:round;stroke-linejoin:round;stroke:rgb(0%,0%,0%);stroke-opacity:1;stroke-miterlimit:10;" d="M 20 1150.78125 L 1153.867188 1150.78125 " transform="matrix(0.1,0,0,-0.1,0,117)"/>
<path style="fill:none;stroke-width:7;stroke-linecap:round;stroke-linejoin:round;stroke:rgb(0%,0%,0%);stroke-opacity:1;stroke-miterlimit:10;" d="M 20 1150.78125 L 20 16.953125 " transform="matrix(0.1,0,0,-0.1,0,117)"/>
<path style="fill:none;stroke-width:7;stroke-linecap:round;stroke-linejoin:round;stroke:rgb(0%,0%,0%);stroke-opacity:1;stroke-miterlimit:10;" d="M 20 867.34375 L 1153.867188 867.34375 " transform="matrix(0.1,0,0,-0.1,0,117)"/>
<path style="fill:none;stroke-width:7;stroke-linecap:round;stroke-linejoin:round;stroke:rgb(0%,0%,0%);stroke-opacity:1;stroke-miterlimit:10;" d="M 303.476562 1150.78125 L 303.476562 16.953125 " transform="matrix(0.1,0,0,-0.1,0,117)"/>
<path style="fill:none;stroke-width:7;stroke-linecap:round;stroke-linejoin:round;stroke:rgb(0%,0%,0%);stroke-opacity:1;stroke-miterlimit:10;" d="M 20 583.867188 L 1153.867188 583.867188 " transform="matrix(0.1,0,0,-0.1,0,117)"/>
<path style="fill:none;stroke-width:7;stroke-linecap:round;stroke-linejoin:round;stroke:rgb(0%,0%,0%);stroke-opacity:1;stroke-miterlimit:10;" d="M 586.914062 1150.78125 L 586.914062 16.953125 " transform="matrix(0.1,0,0,-0.1,0,117)"/>
<path style="fill:none;stroke-width:7;stroke-linecap:round;stroke-linejoin:round;stroke:rgb(0%,0%,0%);stroke-opacity:1;stroke-miterlimit:10;" d="M 20 300.390625 L 1153.867188 300.390625 " transform="matrix(0.1,0,0,-0.1,0,117)"/>
<path style="fill:none;stroke-width:7;stroke-linecap:round;stroke-linejoin:round;stroke:rgb(0%,0%,0%);stroke-opacity:1;stroke-miterlimit:10;" d="M 870.390625 1150.78125 L 870.390625 16.953125 " transform="matrix(0.1,0,0,-0.1,0,117)"/>
<path style="fill:none;stroke-width:7;stroke-linecap:round;stroke-linejoin:round;stroke:rgb(0%,0%,0%);stroke-opacity:1;stroke-miterlimit:10;" d="M 20 16.953125 L 1153.867188 16.953125 " transform="matrix(0.1,0,0,-0.1,0,117)"/>
<path style="fill:none;stroke-width:7;stroke-linecap:round;stroke-linejoin:round;stroke:rgb(0%,0%,0%);stroke-opacity:1;stroke-miterlimit:10;" d="M 1153.867188 1150.78125 L 1153.867188 16.953125 " transform="matrix(0.1,0,0,-0.1,0,117)"/>
<path style="fill:none;stroke-width:28;stroke-linecap:round;stroke-linejoin:round;stroke:rgb(0%,0%,0%);stroke-opacity:1;stroke-miterlimit:10;" d="M 161.71875 1009.0625 L 445.195312 1009.0625 " transform="matrix(0.1,0,0,-0.1,0,117)"/>
<path style="fill:none;stroke-width:28;stroke-linecap:round;stroke-linejoin:round;stroke:rgb(0%,0%,0%);stroke-opacity:1;stroke-miterlimit:10;" d="M 445.195312 1009.0625 L 161.71875 1009.0625 " transform="matrix(0.1,0,0,-0.1,0,117)"/>
<path style="fill:none;stroke-width:28;stroke-linecap:round;stroke-linejoin:round;stroke:rgb(0%,0%,0%);stroke-opacity:1;stroke-miterlimit:10;" d="M 445.195312 1009.0625 L 728.671875 1009.0625 " transform="matrix(0.1,0,0,-0.1,0,117)"/>
<path style="fill:none;stroke-width:28;stroke-linecap:round;stroke-linejoin:round;stroke:rgb(0%,0%,0%);stroke-opacity:1;stroke-miterlimit:10;" d="M 445.195312 1009.0625 L 445.195312 725.585938 " transform="matrix(0.1,0,0,-0.1,0,117)"/>
<path style="fill:none;stroke-width:28;stroke-linecap:round;stroke-linejoin:round;stroke:rgb(0%,0%,0%);stroke-opacity:1;stroke-miterlimit:10;" d="M 728.671875 1009.0625 L 445.195312 1009.0625 " transform="matrix(0.1,0,0,-0.1,0,117)"/>
<path style="fill:none;stroke-width:28;stroke-linecap:round;stroke-linejoin:round;stroke:rgb(0%,0%,0%);stroke-opacity:1;stroke-miterlimit:10;" d="M 445.195312 725.585938 L 445.195312 1009.0625 " transform="matrix(0.1,0,0,-0.1,0,117)"/>
<path style="fill:none;stroke-width:28;stroke-linecap:round;stroke-linejoin:round;stroke:rgb(0%,0%,0%);stroke-opacity:1;stroke-miterlimit:10;" d="M 445.195312 725.585938 L 445.195312 442.148438 " transform="matrix(0.1,0,0,-0.1,0,117)"/>
<path style="fill:none;stroke-width:28;stroke-linecap:round;stroke-linejoin:round;stroke:rgb(0%,0%,0%);stroke-opacity:1;stroke-miterlimit:10;" d="M 445.195312 442.148438 L 445.195312 725.585938 " transform="matrix(0.1,0,0,-0.1,0,117)"/>
<path style="fill:none;stroke-width:28;stroke-linecap:round;stroke-linejoin:round;stroke:rgb(0%,0%,0%);stroke-opacity:1;stroke-miterlimit:10;" d="M 445.195312 442.148438 L 728.671875 442.148438 " transform="matrix(0.1,0,0,-0.1,0,117)"/>
<path style="fill:none;stroke-width:28;stroke-linecap:round;stroke-linejoin:round;stroke:rgb(0%,0%,0%);stroke-opacity:1;stroke-miterlimit:10;" d="M 728.671875 442.148438 L 445.195312 442.148438 " transform="matrix(0.1,0,0,-0.1,0,117)"/>
<path style=" stroke:none;fill-rule:nonzero;fill:rgb(0%,0%,0%);fill-opacity:1;" d="M 22.550781 16.09375 C 22.550781 17.785156 21.878906 19.40625 20.683594 20.601562 C 19.488281 21.800781 17.863281 22.472656 16.171875 22.472656 C 14.480469 22.472656 12.859375 21.800781 11.664062 20.601562 C 10.46875 19.40625 9.796875 17.785156 9.796875 16.09375 C 9.796875 14.402344 10.46875 12.78125 11.664062 11.585938 C 12.859375 10.386719 14.480469 9.714844 16.171875 9.714844 C 17.863281 9.714844 19.488281 10.386719 20.683594 11.585938 C 21.878906 12.78125 22.550781 14.402344 22.550781 16.09375 "/>
<path style=" stroke:none;fill-rule:nonzero;fill:rgb(100%,100%,100%);fill-opacity:1;" d="M 20.425781 16.09375 C 20.425781 17.222656 19.976562 18.300781 19.179688 19.097656 C 18.382812 19.898438 17.300781 20.34375 16.171875 20.34375 C 15.046875 20.34375 13.964844 19.898438 13.167969 19.097656 C 12.367188 18.300781 11.921875 17.222656 11.921875 16.09375 C 11.921875 14.964844 12.367188 13.882812 13.167969 13.085938 C 13.964844 12.289062 15.046875 11.839844 16.171875 11.839844 C 17.300781 11.839844 18.382812 12.289062 19.179688 13.085938 C 19.976562 13.882812 20.425781 14.964844 20.425781 16.09375 "/>
<path style=" stroke:none;fill-rule:nonzero;fill:rgb(0%,0%,0%);fill-opacity:1;" d="M 50.898438 16.09375 C 50.898438 17.785156 50.226562 19.40625 49.03125 20.601562 C 47.832031 21.800781 46.210938 22.472656 44.519531 22.472656 C 42.828125 22.472656 41.207031 21.800781 40.011719 20.601562 C 38.8125 19.40625 38.140625 17.785156 38.140625 16.09375 C 38.140625 14.402344 38.8125 12.78125 40.011719 11.585938 C 41.207031 10.386719 42.828125 9.714844 44.519531 9.714844 C 46.210938 9.714844 47.832031 10.386719 49.03125 11.585938 C 50.226562 12.78125 50.898438 14.402344 50.898438 16.09375 "/>
<path style=" stroke:none;fill-rule:nonzero;fill:rgb(100%,100%,100%);fill-opacity:1;" d="M 48.773438 16.09375 C 48.773438 17.222656 48.324219 18.300781 47.527344 19.097656 C 46.730469 19.898438 45.648438 20.34375 44.519531 20.34375 C 43.390625 20.34375 42.308594 19.898438 41.511719 19.097656 C 40.714844 18.300781 40.269531 17.222656 40.269531 16.09375 C 40.269531 14.964844 40.714844 13.882812 41.511719 13.085938 C 42.308594 12.289062 43.390625 11.839844 44.519531 11.839844 C 45.648438 11.839844 46.730469 12.289062 47.527344 13.085938 C 48.324219 13.882812 48.773438 14.964844 48.773438 16.09375 "/>
<path style=" stroke:none;fill-rule:nonzero;fill:rgb(0%,0%,0%);fill-opacity:1;" d="M 79.242188 16.09375 C 79.242188 17.785156 78.570312 19.40625 77.375 20.601562 C 76.179688 21.800781 74.558594 22.472656 72.867188 22.472656 C 71.175781 22.472656 69.550781 21.800781 68.355469 20.601562 C 67.160156 19.40625 66.488281 17.785156 66.488281 16.09375 C 66.488281 14.402344 67.160156 12.78125 68.355469 11.585938 C 69.550781 10.386719 71.175781 9.714844 72.867188 9.714844 C 74.558594 9.714844 76.179688 10.386719 77.375 11.585938 C 78.570312 12.78125 79.242188 14.402344 79.242188 16.09375 "/>
<path style=" stroke:none;fill-rule:nonzero;fill:rgb(100%,100%,100%);fill-opacity:1;" d="M 77.117188 16.09375 C 77.117188 17.222656 76.667969 18.300781 75.871094 19.097656 C 75.074219 19.898438 73.992188 20.34375 72.867188 20.34375 C 71.738281 20.34375 70.65625 19.898438 69.859375 19.097656 C 69.0625 18.300781 68.613281 17.222656 68.613281 16.09375 C 68.613281 14.964844 69.0625 13.882812 69.859375 13.085938 C 70.65625 12.289062 71.738281 11.839844 72.867188 11.839844 C 73.992188 11.839844 75.074219 12.289062 75.871094 13.085938 C 76.667969 13.882812 77.117188 14.964844 77.117188 16.09375 "/>
<path style=" stroke:none;fill-rule:nonzero;fill:rgb(0%,0%,0%);fill-opacity:1;" d="M 50.898438 44.441406 C 50.898438 46.132812 50.226562 47.753906 49.03125 48.949219 C 47.832031 50.144531 46.210938 50.816406 44.519531 50.816406 C 42.828125 50.816406 41.207031 50.144531 40.011719 48.949219 C 38.8125 47.753906 38.140625 46.132812 38.140625 44.441406 C 38.140625 42.746094 38.8125 41.125 40.011719 39.929688 C 41.207031 38.734375 42.828125 38.0625 44.519531 38.0625 C 46.210938 38.0625 47.832031 38.734375 49.03125 39.929688 C 50.226562 41.125 50.898438 42.746094 50.898438 44.441406 "/>
<path style=" stroke:none;fill-rule:nonzero;fill:rgb(100%,100%,100%);fill-opacity:1;" d="M 48.773438 44.441406 C 48.773438 45.566406 48.324219 46.648438 47.527344 47.445312 C 46.730469 48.242188 45.648438 48.691406 44.519531 48.691406 C 43.390625 48.691406 42.308594 48.242188 41.511719 47.445312 C 40.714844 46.648438 40.269531 45.566406 40.269531 44.441406 C 40.269531 43.3125 40.714844 42.230469 41.511719 41.433594 C 42.308594 40.636719 43.390625 40.1875 44.519531 40.1875 C 45.648438 40.1875 46.730469 40.636719 47.527344 41.433594 C 48.324219 42.230469 48.773438 43.3125 48.773438 44.441406 "/>
<path style=" stroke:none;fill-rule:nonzero;fill:rgb(0%,0%,0%);fill-opacity:1;" d="M 50.898438 72.785156 C 50.898438 74.476562 50.226562 76.101562 49.03125 77.296875 C 47.832031 78.492188 46.210938 79.164062 44.519531 79.164062 C 42.828125 79.164062 41.207031 78.492188 40.011719 77.296875 C 38.8125 76.101562 38.140625 74.476562 38.140625 72.785156 C 38.140625 71.09375 38.8125 69.472656 40.011719 68.277344 C 41.207031 67.082031 42.828125 66.40625 44.519531 66.40625 C 46.210938 66.40625 47.832031 67.082031 49.03125 68.277344 C 50.226562 69.472656 50.898438 71.09375 50.898438 72.785156 "/>
<path style=" stroke:none;fill-rule:nonzero;fill:rgb(100%,100%,100%);fill-opacity:1;" d="M 48.773438 72.785156 C 48.773438 73.914062 48.324219 74.996094 47.527344 75.792969 C 46.730469 76.589844 45.648438 77.039062 44.519531 77.039062 C 43.390625 77.039062 42.308594 76.589844 41.511719 75.792969 C 40.714844 74.996094 40.269531 73.914062 40.269531 72.785156 C 40.269531 71.65625 40.714844 70.578125 41.511719 69.78125 C 42.308594 68.980469 43.390625 68.535156 44.519531 68.535156 C 45.648438 68.535156 46.730469 68.980469 47.527344 69.78125 C 48.324219 70.578125 48.773438 71.65625 48.773438 72.785156 "/>
<path style=" stroke:none;fill-rule:nonzero;fill:rgb(0%,0%,0%);fill-opacity:1;" d="M 79.242188 72.785156 C 79.242188 74.476562 78.570312 76.101562 77.375 77.296875 C 76.179688 78.492188 74.558594 79.164062 72.867188 79.164062 C 71.175781 79.164062 69.550781 78.492188 68.355469 77.296875 C 67.160156 76.101562 66.488281 74.476562 66.488281 72.785156 C 66.488281 71.09375 67.160156 69.472656 68.355469 68.277344 C 69.550781 67.082031 71.175781 66.40625 72.867188 66.40625 C 74.558594 66.40625 76.179688 67.082031 77.375 68.277344 C 78.570312 69.472656 79.242188 71.09375 79.242188 72.785156 "/>
<path style=" stroke:none;fill-rule:nonzero;fill:rgb(100%,100%,100%);fill-opacity:1;" d="M 77.117188 72.785156 C 77.117188 73.914062 76.667969 74.996094 75.871094 75.792969 C 75.074219 76.589844 73.992188 77.039062 72.867188 77.039062 C 71.738281 77.039062 70.65625 76.589844 69.859375 75.792969 C 69.0625 74.996094 68.613281 73.914062 68.613281 72.785156 C 68.613281 71.65625 69.0625 70.578125 69.859375 69.78125 C 70.65625 68.980469 71.738281 68.535156 72.867188 68.535156 C 73.992188 68.535156 75.074219 68.980469 75.871094 69.78125 C 76.667969 70.578125 77.117188 71.65625 77.117188 72.785156 "/>
</g>
</svg>
