<?xml version="1.0" encoding="UTF-8"?>
<svg xmlns="http://www.w3.org/2000/svg" xmlns:xlink="http://www.w3.org/1999/xlink" width="117pt" height="117pt" viewBox="0 0 117 117" version="1.1">
<g id="surface1">
<path style="fill:none;stroke-width:7;stroke-linecap:round;stroke-linejoin:round;stroke:rgb(0%,0%,0%);stroke-opacity:1;stroke-miterlimit:10;" d="M 20 1150.78125 L 1153.867188 1150.78125 " transform="matrix(0.1,0,0,-0.1,0,117)"/>
<path style="fill:none;stroke-width:7;stroke-linecap:round;stroke-linejoin:round;stroke:rgb(0%,0%,0%);stroke-opacity:1;stroke-miterlimit:10;" d="M 20 1150.78125 L 20 16.953125 " transform="matrix(0.1,0,0,-0.1,0,117)"/>
<path style="fill:none;stroke-width:7;stroke-linecap:round;stroke-linejoin:round;stroke:rgb(0%,0%,0%);stroke-opacity:1;stroke-miterlimit:10;" d="M 20 867.34375 L 1153.867188 867.34375 " transform="matrix(0.1,0,0,-0.1,0,117)"/>
<path style="fill:none;stroke-width:7;stroke-linecap:round;stroke-linejoin:round;stroke:rgb(0%,0%,0%);stroke-opacity:1;stroke-miterlimit:10;" d="M 303.476562 1150.78125 L 303.476562 16.953125 " transform="matrix(0.1,0,0,-0.1,0,117)"/>
<path style="fill:none;stroke-width:7;stroke-linecap:round;stroke-linejoin:round;stroke:rgb(0%,0%,0%);stroke-opacity:1;stroke-miterlimit:10;" d="M 20 583.867188 L 1153.867188 583.867188 " transform="matrix(0.1,0,0,-0.1,0,117)"/>
<path style="fill:none;stroke-width:7;stroke-linecap:round;stroke-linejoin:round;stroke:rgb(0%,0%,0%);stroke-opacity:1;stroke-miterlimit:10;" d="M 586.914062 1150.78125 L 586.914062 16.953125 " transform="matrix(0.1,0,0,-0.1,0,117)"/>
<path style="fill:none;stroke-width:7;stroke-linecap:round;stroke-linejoin:round;stroke:rgb(0%,0%,0%);stroke-opacity:1;stroke-miterlimit:10;" d="M 20 300.390625 L 1153.867188 300.390625 " transform="matrix(0.1,0,0,-0.1,0,117)"/>
<path style="fill:none;stroke-width:7;stroke-linecap:round;stroke-linejoin:round;stroke:rgb(0%,0%,0%);stroke-opacity:1;stroke-miterlimit:10;" d="M 870.390625 1150.78125 L 870.390625 16.953125 " transform="matrix(0.1,0,0,-0.1,0,117)"/>
<path style="fill:none;stroke-width:7;stroke-linecap:round;stroke-linejoin:round;stroke:rgb(0%,0%,0%);stroke-opacity:1;stroke-miterlimit:10;" d="M 20 16.953125 L 1153.867188 16.953125 " transform="matrix(0.1,0,0,-0.1,0,117)"/>
<path style="fill:none;stroke-width:7;stroke-linecap:round;stroke-linejoin:round;stroke:rgb(0%,0%,0%);stroke-opacity:1;stroke-miterlimit:10;" d="M 1153.867188 1150.78125 L 1153.867188 16.953125 " transform="matrix(0.1,0,0,-0.1,0,117)"/>
<path style="fill:none;stroke-width:28;stroke-linecap:round;stroke-linejoin:round;stroke:rgb(0%,0%,0%);stroke-opacity:1;stroke-miterlimit:10;" d="M 1012.148438 725.585938 L 1012.148438 442.148438 " transform="matrix(0.1,0,0,-0.1,0,117)"/>
<path style="fill:none;stroke-width:28;stroke-linecap:round;stroke-linejoin:round;stroke:rgb(0%,0%,0%);stroke-opacity:1;stroke-miterlimit:10;" d="M 728.671875 442.148438 L 1012.148438 442.148438 " transform="matrix(0.1,0,0,-0.1,0,117)"/>
<path style="fill:none;stroke-width:28;stroke-linecap:round;stroke-linejoin:round;stroke:rgb(0%,0%,0%);stroke-opacity:1;stroke-miterlimit:10;" d="M 728.671875 442.148438 L 728.671875 158.671875 " transform="matrix(0.1,0,0,-0.1,0,117)"/>
<path style="fill:none;stroke-width:28;stroke-linecap:round;stroke-linejoin:round;stroke:rgb(0%,0%,0%);stroke-opacity:1;stroke-miterlimit:10;" d="M 1012.148438 442.148438 L 1012.148438 725.585938 " transform="matrix(0.1,0,0,-0.1,0,117)"/>
<path style="fill:none;stroke-width:28;stroke-linecap:round;stroke-linejoin:round;stroke:rgb(0%,0%,0%);stroke-opacity:1;stroke-miterlimit:10;" d="M 1012.148438 442.148438 L 728.671875 442.148438 " transform="matrix(0.1,0,0,-0.1,0,117)"/>
<path style="fill:none;stroke-width:28;stroke-linecap:round;stroke-linejoin:round;stroke:rgb(0%,0%,0%);stroke-opacity:1;stroke-miterlimit:10;" d="M 1012.148438 442.148438 L 1012.148438 158.671875 " transform="matrix(0.1,0,0,-0.1,0,117)"/>
<path style="fill:none;stroke-width:28;stroke-linecap:round;stroke-linejoin:round;stroke:rgb(0%,0%,0%);stroke-opacity:1;stroke-miterlimit:10;" d="M 445.195312 158.671875 L 728.671875 158.671875 " transform="matrix(0.1,0,0,-0.1,0,117)"/>
<path style="fill:none;stroke-width:28;stroke-linecap:round;stroke-linejoin:round;stroke:rgb(0%,0%,0%);stroke-opacity:1;stroke-miterlimit:10;" d="M 728.671875 158.671875 L 728.671875 442.148438 " transform="matrix(0.1,0,0,-0.1,0,117)"/>
<path style="fill:none;stroke-width:28;stroke-linecap:round;stroke-linejoin:round;stroke:rgb(0%,0%,0%);stroke-opacity:1;stroke-miterlimit:10;" d="M 728.671875 158.671875 L 445.195312 158.671875 " transform="matrix(0.1,0,0,-0.1,0,117)"/>
<path style="fill:none;stroke-width:28;stroke-linecap:round;stroke-linejoin:round;stroke:rgb(0%,0%,0%);stroke-opacity:1;stroke-miterlimit:10;" d="M 728.671875 158.671875 L 1012.148438 158.671875 " transform="matrix(0.1,0,0,-0.1,0,117)"/>
<path style="fill:none;stroke-width:28;stroke-linecap:round;stroke-linejoin:round;stroke:rgb(0%,0%,0%);stroke-opacity:1;stroke-miterlimit:10;" d="M 1012.148438 158.671875 L 1012.148438 442.148438 " transform="matrix(0.1,0,0,-0.1,0,117)"/>
<path style="fill:none;stroke-width:28;stroke-linecap:round;stroke-linejoin:round;stroke:rgb(0%,0%,0%);stroke-opacity:1;stroke-miterlimit:10;" d="M 1012.148438 158.671875 L 728.671875 158.671875 " transform="matrix(0.1,0,0,-0.1,0,117)"/>
<path style=" stroke:none;fill-rule:nonzero;fill:rgb(0%,0%,0%);fill-opacity:1;" d="M 107.589844 44.441406 C 107.589844 46.132812 106.917969 47.753906 105.722656 48.949219 C 104.527344 50.144531 102.902344 50.816406 101.214844 50.816406 C 99.519531 50.816406 97.898438 50.144531 96.703125 48.949219 C 95.507812 47.753906 94.835938 46.132812 94.835938 44.441406 C 94.835938 42.746094 95.507812 41.125 96.703125 39.929688 C 97.898438 38.734375 99.519531 38.0625 101.214844 38.0625 C 102.902344 38.0625 104.527344 38.734375 105.722656 39.929688 C 106.917969 41.125 107.589844 42.746094 107.589844 44.441406 "/>
<path style=" stroke:none;fill-rule:nonzero;fill:rgb(100%,100%,100%);fill-opacity:1;" d="M 105.464844 44.441406 C 105.464844 45.566406 105.015625 46.648438 104.21875 47.445312 C 103.421875 48.242188 102.339844 48.691406 101.214844 48.691406 C 100.085938 48.691406 99.003906 48.242188 98.207031 47.445312 C 97.410156 46.648438 96.960938 45.566406 96.960938 44.441406 C 96.960938 43.3125 97.410156 42.230469 98.207031 41.433594 C 99.003906 40.636719 100.085938 40.1875 101.214844 40.1875 C 102.339844 40.1875 103.421875 40.636719 104.21875 41.433594 C 105.015625 42.230469 105.464844 43.3125 105.464844 44.441406 "/>
<path style=" stroke:none;fill-rule:nonzero;fill:rgb(0%,0%,0%);fill-opacity:1;" d="M 79.242188 72.785156 C 79.242188 74.476562 78.570312 76.101562 77.375 77.296875 C 76.179688 78.492188 74.558594 79.164062 72.867188 79.164062 C 71.175781 79.164062 69.550781 78.492188 68.355469 77.296875 C 67.160156 76.101562 66.488281 74.476562 66.488281 72.785156 C 66.488281 71.09375 67.160156 69.472656 68.355469 68.277344 C 69.550781 67.082031 71.175781 66.40625 72.867188 66.40625 C 74.558594 66.40625 76.179688 67.082031 77.375 68.277344 C 78.570312 69.472656 79.242188 71.09375 79.242188 72.785156 "/>
<path style=" stroke:none;fill-rule:nonzero;fill:rgb(100%,100%,100%);fill-opacity:1;" d="M 77.117188 72.785156 C 77.117188 73.914062 76.667969 74.996094 75.871094 75.792969 C 75.074219 76.589844 73.992188 77.039062 72.867188 77.039062 C 71.738281 77.039062 70.65625 76.589844 69.859375 75.792969 C 69.0625 74.996094 68.613281 73.914062 68.613281 72.785156 C 68.613281 71.65625 69.0625 70.578125 69.859375 69.78125 C 70.65625 68.980469 71.738281 68.535156 72.867188 68.535156 C 73.992188 68.535156 75.074219 68.980469 75.871094 69.78125 C 76.667969 70.578125 77.117188 71.65625 77.117188 72.785156 "/>
<path style=" stroke:none;fill-rule:nonzero;fill:rgb(0%,0%,0%);fill-opacity:1;" d="M 107.589844 72.785156 C 107.589844 74.476562 106.917969 76.101562 105.722656 77.296875 C 104.527344 78.492188 102.902344 79.164062 101.214844 79.164062 C 99.519531 79.164062 97.898438 78.492188 96.703125 77.296875 C 95.507812 76.101562 94.835938 74.476562 94.835938 72.785156 C 94.835938 71.09375 95.507812 69.472656 96.703125 68.277344 C 97.898438 67.082031 99.519531 66.40625 101.214844 66.40625 C 102.902344 66.40625 104.527344 67.082031 105.722656 68.277344 C 106.917969 69.472656 107.589844 71.09375 107.589844 72.785156 "/>
<path style=" stroke:none;fill-rule:nonzero;fill:rgb(100%,100%,100%);fill-opacity:1;" d="M 105.464844 72.785156 C 105.464844 73.914062 105.015625 74.996094 104.21875 75.792969 C 103.421875 76.589844 102.339844 77.039062 101.214844 77.039062 C 100.085938 77.039062 99.003906 76.589844 98.207031 75.792969 C 97.410156 74.996094 96.960938 73.914062 96.960938 72.785156 C 96.960938 71.65625 97.410156 70.578125 98.207031 69.78125 C 99.003906 68.980469 100.085938 68.535156 101.214844 68.535156 C 102.339844 68.535156 103.421875 68.980469 104.21875 69.78125 C 105.015625 70.578125 105.464844 71.65625 105.464844 72.785156 "/>
<path style=" stroke:none;fill-rule:nonzero;fill:rgb(0%,0%,0%);fill-opacity:1;" d="M 50.898438 101.132812 C 50.898438 102.824219 50.226562 104.445312 49.03125 105.640625 C 47.832031 106.839844 46.210938 107.511719 44.519531 107.511719 C 42.828125 107.511719 41.207031 106.839844 40.011719 105.640625 C 38.8125 104.445312 38.140625 102.824219 38.140625 101.132812 C 38.140625 99.441406 38.8125 97.820312 40.011719 96.621094 C 41.207031 95.425781 42.828125 94.753906 44.519531 94.753906 C 46.210938 94.753906 47.832031 95.425781 49.03125 96.621094 C 50.226562 97.820312 50.898438 99.441406 50.898438 101.132812 "/>
<path style=" stroke:none;fill-rule:nonzero;fill:rgb(100%,100%,100%);fill-opacity:1;" d="M 48.773438 101.132812 C 48.773438 102.261719 48.324219 103.34375 47.527344 104.140625 C 46.730469 104.9375 45.648438 105.386719 44.519531 105.386719 C 43.390625 105.386719 42.308594 104.9375 41.511719 104.140625 C 40.714844 103.34375 40.269531 102.261719 40.269531 101.132812 C 40.269531 100.003906 40.714844 98.921875 41.511719 98.125 C 42.308594 97.328125 43.390625 96.878906 44.519531 96.878906 C 45.648438 96.878906 46.730469 97.328125 47.527344 98.125 C 48.324219 98.921875 48.773438 100.003906 48.773438 101.132812 "/>
<path style=" stroke:none;fill-rule:nonzero;fill:rgb(0%,0%,0%);fill-opacity:1;" d="M 79.242188 101.132812 C 79.242188 102.824219 78.570312 104.445312 77.375 105.640625 C 76.179688 106.839844 74.558594 107.511719 72.867188 107.511719 C 71.175781 107.511719 69.550781 106.839844 68.355469 105.640625 C 67.160156 104.445312 66.488281 102.824219 66.488281 101.132812 C 66.488281 99.441406 67.160156 97.820312 68.355469 96.621094 C 69.550781 95.425781 71.175781 94.753906 72.867188 94.753906 C 74.558594 94.753906 76.179688 95.425781 77.375 96.621094 C 78.570312 97.820312 79.242188 99.441406 79.242188 101.132812 "/>
<path style=" stroke:none;fill-rule:nonzero;fill:rgb(100%,100%,100%);fill-opacity:1;" d="M 77.117188 101.132812 C 77.117188 102.261719 76.667969 103.34375 75.871094 104.140625 C 75.074219 104.9375 73.992188 105.386719 72.867188 105.386719 C 71.738281 105.386719 70.65625 104.9375 69.859375 104.140625 C 69.0625 103.34375 68.613281 102.261719 68.613281 101.132812 C 68.613281 100.003906 69.0625 98.921875 69.859375 98.125 C 70.65625 97.328125 71.738281 96.878906 72.867188 96.878906 C 73.992188 96.878906 75.074219 97.328125 75.871094 98.125 C 76.667969 98.921875 77.117188 100.003906 77.117188 101.132812 "/>
<path style=" stroke:none;fill-rule:nonzero;fill:rgb(0%,0%,0%);fill-opacity:1;" d="M 107.589844 101.132812 C 107.589844 102.824219 106.917969 104.445312 105.722656 105.640625 C 104.527344 106.839844 102.902344 107.511719 101.214844 107.511719 C 99.519531 107.511719 97.898438 106.839844 96.703125 105.640625 C 95.507812 104.445312 94.835938 102.824219 94.835938 101.132812 C 94.835938 99.441406 95.507812 97.820312 96.703125 96.621094 C 97.898438 95.425781 99.519531 94.753906 101.214844 94.753906 C 102.902344 94.753906 104.527344 95.425781 105.722656 96.621094 C 106.917969 97.820312 107.589844 99.441406 107.589844 101.132812 "/>
<path style=" stroke:none;fill-rule:nonzero;fill:rgb(100%,100%,100%);fill-opacity:1;" d="M 105.464844 101.132812 C 105.464844 102.261719 105.015625 103.34375 104.21875 104.140625 C 103.421875 104.9375 102.339844 105.386719 101.214844 105.386719 C 100.085938 105.386719 99.003906 104.9375 98.207031 104.140625 C 97.410156 103.34375 96.960938 102.261719 96.960938 101.132812 C 96.960938 100.003906 97.410156 98.921875 98.207031 98.125 C 99.003906 97.328125 100.085938 96.878906 101.214844 96.878906 C 102.339844 96.878906 103.421875 97.328125 104.21875 98.125 C 105.015625 98.921875 105.464844 100.003906 105.464844 101.132812 "/>
</g>
</svg>
