<?xml version="1.0" encoding="UTF-8"?>
<svg xmlns="http://www.w3.org/2000/svg" xmlns:xlink="http://www.w3.org/1999/xlink" width="117pt" height="117pt" viewBox="0 0 117 117" version="1.1">
<g id="surface1">
<path style="fill:none;stroke-width:7;stroke-linecap:round;stroke-linejoin:round;stroke:rgb(0%,0%,0%);stroke-opacity:1;stroke-miterlimit:10;" d="M 20 1150.78125 L 1153.867188 1150.78125 " transform="matrix(0.1,0,0,-0.1,0,117)"/>
<path style="fill:none;stroke-width:7;stroke-linecap:round;stroke-linejoin:round;stroke:rgb(0%,0%,0%);stroke-opacity:1;stroke-miterlimit:10;" d="M 20 1150.78125 L 20 16.953125 " transform="matrix(0.1,0,0,-0.1,0,117)"/>
<path style="fill:none;stroke-width:7;stroke-linecap:round;stroke-linejoin:round;stroke:rgb(0%,0%,0%);stroke-opacity:1;stroke-miterlimit:10;" d="M 20 867.34375 L 1153.867188 867.34375 " transform="matrix(0.1,0,0,-0.1,0,117)"/>
<path style="fill:none;stroke-width:7;stroke-linecap:round;stroke-linejoin:round;stroke:rgb(0%,0%,0%);stroke-opacity:1;stroke-miterlimit:10;" d="M 303.476562 1150.78125 L 303.476562 16.953125 " transform="matrix(0.1,0,0,-0.1,0,117)"/>
<path style="fill:none;stroke-width:7;stroke-linecap:round;stroke-linejoin:round;stroke:rgb(0%,0%,0%);stroke-opacity:1;stroke-miterlimit:10;" d="M 20 583.867188 L 1153.867188 583.867188 " transform="matrix(0.1,0,0,-0.1,0,117)"/>
<path style="fill:none;stroke-width:7;stroke-linecap:round;stroke-linejoin:round;stroke:rgb(0%,0%,0%);stroke-opacity:1;stroke-miterlimit:10;" d="M 586.914062 1150.78125 L 586.914062 16.953125 " transform="matrix(0.1,0,0,-0.1,0,117)"/>
<path style="fill:none;stroke-width:7;stroke-linecap:round;stroke-linejoin:round;stroke:rgb(0%,0%,0%);stroke-opacity:1;stroke-miterlimit:10;" d="M 20 300.390625 L 1153.867188 300.390625 " transform="matrix(0.1,0,0,-0.1,0,117)"/>
<path style="fill:none;stroke-width:7;stroke-linecap:round;stroke-linejoin:round;stroke:rgb(0%,0%,0%);stroke-opacity:1;stroke-miterlimit:10;" d="M 870.390625 1150.78125 L 870.390625 16.953125 " transform="matrix(0.1,0,0,-0.1,0,117)"/>
<path style="fill:none;stroke-width:7;stroke-linecap:round;stroke-linejoin:round;stroke:rgb(0%,0%,0%);stroke-opacity:1;stroke-miterlimit:10;" d="M 20 16.953125 L 1153.867188 16.953125 " transform="matrix(0.1,0,0,-0.1,0,117)"/>
<path style="fill:none;stroke-width:7;stroke-linecap:round;stroke-linejoin:round;stroke:rgb(0%,0%,0%);stroke-opacity:1;stroke-miterlimit:10;" d="M 1153.867188 1150.78125 L 1153.867188 16.953125 " transform="matrix(0.1,0,0,-0.1,0,117)"/>
<path style="fill:none;stroke-width:28;stroke-linecap:round;stroke-linejoin:round;stroke:rgb(0%,0%,0%);stroke-opacity:1;stroke-miterlimit:10;" d="M 1012.148438 1009.0625 L 1012.148438 725.585938 " transform="matrix(0.1,0,0,-0.1,0,117)"/>
<path style="fill:none;stroke-width:28;stroke-linecap:round;stroke-linejoin:round;stroke:rgb(0%,0%,0%);stroke-opacity:1;stroke-miterlimit:10;" d="M 445.195312 725.585938 L 728.671875 725.585938 " transform="matrix(0.1,0,0,-0.1,0,117)"/>
<path style="fill:none;stroke-width:28;stroke-linecap:round;stroke-linejoin:round;stroke:rgb(0%,0%,0%);stroke-opacity:1;stroke-miterlimit:10;" d="M 445.195312 725.585938 L 445.195312 442.148438 " transform="matrix(0.1,0,0,-0.1,0,117)"/>
<path style="fill:none;stroke-width:28;stroke-linecap:round;stroke-linejoin:round;stroke:rgb(0%,0%,0%);stroke-opacity:1;stroke-miterlimit:10;" d="M 728.671875 725.585938 L 445.195312 725.585938 " transform="matrix(0.1,0,0,-0.1,0,117)"/>
<path style="fill:none;stroke-width:28;stroke-linecap:round;stroke-linejoin:round;stroke:rgb(0%,0%,0%);stroke-opacity:1;stroke-miterlimit:10;" d="M 728.671875 725.585938 L 1012.148438 725.585938 " transform="matrix(0.1,0,0,-0.1,0,117)"/>
<path style="fill:none;stroke-width:28;stroke-linecap:round;stroke-linejoin:round;stroke:rgb(0%,0%,0%);stroke-opacity:1;stroke-miterlimit:10;" d="M 728.671875 725.585938 L 728.671875 442.148438 " transform="matrix(0.1,0,0,-0.1,0,117)"/>
<path style="fill:none;stroke-width:28;stroke-linecap:round;stroke-linejoin:round;stroke:rgb(0%,0%,0%);stroke-opacity:1;stroke-miterlimit:10;" d="M 1012.148438 725.585938 L 1012.148438 1009.0625 " transform="matrix(0.1,0,0,-0.1,0,117)"/>
<path style="fill:none;stroke-width:28;stroke-linecap:round;stroke-linejoin:round;stroke:rgb(0%,0%,0%);stroke-opacity:1;stroke-miterlimit:10;" d="M 1012.148438 725.585938 L 728.671875 725.585938 " transform="matrix(0.1,0,0,-0.1,0,117)"/>
<path style="fill:none;stroke-width:28;stroke-linecap:round;stroke-linejoin:round;stroke:rgb(0%,0%,0%);stroke-opacity:1;stroke-miterlimit:10;" d="M 1012.148438 725.585938 L 1012.148438 442.148438 " transform="matrix(0.1,0,0,-0.1,0,117)"/>
<path style="fill:none;stroke-width:28;stroke-linecap:round;stroke-linejoin:round;stroke:rgb(0%,0%,0%);stroke-opacity:1;stroke-miterlimit:10;" d="M 445.195312 442.148438 L 445.195312 725.585938 " transform="matrix(0.1,0,0,-0.1,0,117)"/>
<path style="fill:none;stroke-width:28;stroke-linecap:round;stroke-linejoin:round;stroke:rgb(0%,0%,0%);stroke-opacity:1;stroke-miterlimit:10;" d="M 445.195312 442.148438 L 728.671875 442.148438 " transform="matrix(0.1,0,0,-0.1,0,117)"/>
<path style="fill:none;stroke-width:28;stroke-linecap:round;stroke-linejoin:round;stroke:rgb(0%,0%,0%);stroke-opacity:1;stroke-miterlimit:10;" d="M 728.671875 442.148438 L 728.671875 725.585938 " transform="matrix(0.1,0,0,-0.1,0,117)"/>
<path style="fill:none;stroke-width:28;stroke-linecap:round;stroke-linejoin:round;stroke:rgb(0%,0%,0%);stroke-opacity:1;stroke-miterlimit:10;" d="M 728.671875 442.148438 L 445.195312 442.148438 " transform="matrix(0.1,0,0,-0.1,0,117)"/>
<path style="fill:none;stroke-width:28;stroke-linecap:round;stroke-linejoin:round;stroke:rgb(0%,0%,0%);stroke-opacity:1;stroke-miterlimit:10;" d="M 728.671875 442.148438 L 1012.148438 442.148438 " transform="matrix(0.1,0,0,-0.1,0,117)"/>
<path style="fill:none;stroke-width:28;stroke-linecap:round;stroke-linejoin:round;stroke:rgb(0%,0%,0%);stroke-opacity:1;stroke-miterlimit:10;" d="M 1012.148438 442.148438 L 1012.148438 725.585938 " transform="matrix(0.1,0,0,-0.1,0,117)"/>
<path style="fill:none;stroke-width:28;stroke-linecap:round;stroke-linejoin:round;stroke:rgb(0%,0%,0%);stroke-opacity:1;stroke-miterlimit:10;" d="M 1012.148438 442.148438 L 728.671875 442.148438 " transform="matrix(0.1,0,0,-0.1,0,117)"/>
<path style=" stroke:none;fill-rule:nonzero;fill:rgb(0%,0%,0%);fill-opacity:1;" d="M 107.589844 16.09375 C 107.589844 17.785156 106.917969 19.40625 105.722656 20.601562 C 104.527344 21.800781 102.902344 22.472656 101.214844 22.472656 C 99.519531 22.472656 97.898438 21.800781 96.703125 20.601562 C 95.507812 19.40625 94.835938 17.785156 94.835938 16.09375 C 94.835938 14.402344 95.507812 12.78125 96.703125 11.585938 C 97.898438 10.386719 99.519531 9.714844 101.214844 9.714844 C 102.902344 9.714844 104.527344 10.386719 105.722656 11.585938 C 106.917969 12.78125 107.589844 14.402344 107.589844 16.09375 "/>
<path style=" stroke:none;fill-rule:nonzero;fill:rgb(100%,100%,100%);fill-opacity:1;" d="M 105.464844 16.09375 C 105.464844 17.222656 105.015625 18.300781 104.21875 19.097656 C 103.421875 19.898438 102.339844 20.34375 101.214844 20.34375 C 100.085938 20.34375 99.003906 19.898438 98.207031 19.097656 C 97.410156 18.300781 96.960938 17.222656 96.960938 16.09375 C 96.960938 14.964844 97.410156 13.882812 98.207031 13.085938 C 99.003906 12.289062 100.085938 11.839844 101.214844 11.839844 C 102.339844 11.839844 103.421875 12.289062 104.21875 13.085938 C 105.015625 13.882812 105.464844 14.964844 105.464844 16.09375 "/>
<path style=" stroke:none;fill-rule:nonzero;fill:rgb(0%,0%,0%);fill-opacity:1;" d="M 50.898438 44.441406 C 50.898438 46.132812 50.226562 47.753906 49.03125 48.949219 C 47.832031 50.144531 46.210938 50.816406 44.519531 50.816406 C 42.828125 50.816406 41.207031 50.144531 40.011719 48.949219 C 38.8125 47.753906 38.140625 46.132812 38.140625 44.441406 C 38.140625 42.746094 38.8125 41.125 40.011719 39.929688 C 41.207031 38.734375 42.828125 38.0625 44.519531 38.0625 C 46.210938 38.0625 47.832031 38.734375 49.03125 39.929688 C 50.226562 41.125 50.898438 42.746094 50.898438 44.441406 "/>
<path style=" stroke:none;fill-rule:nonzero;fill:rgb(100%,100%,100%);fill-opacity:1;" d="M 48.773438 44.441406 C 48.773438 45.566406 48.324219 46.648438 47.527344 47.445312 C 46.730469 48.242188 45.648438 48.691406 44.519531 48.691406 C 43.390625 48.691406 42.308594 48.242188 41.511719 47.445312 C 40.714844 46.648438 40.269531 45.566406 40.269531 44.441406 C 40.269531 43.3125 40.714844 42.230469 41.511719 41.433594 C 42.308594 40.636719 43.390625 40.1875 44.519531 40.1875 C 45.648438 40.1875 46.730469 40.636719 47.527344 41.433594 C 48.324219 42.230469 48.773438 43.3125 48.773438 44.441406 "/>
<path style=" stroke:none;fill-rule:nonzero;fill:rgb(0%,0%,0%);fill-opacity:1;" d="M 79.242188 44.441406 C 79.242188 46.132812 78.570312 47.753906 77.375 48.949219 C 76.179688 50.144531 74.558594 50.816406 72.867188 50.816406 C 71.175781 50.816406 69.550781 50.144531 68.355469 48.949219 C 67.160156 47.753906 66.488281 46.132812 66.488281 44.441406 C 66.488281 42.746094 67.160156 41.125 68.355469 39.929688 C 69.550781 38.734375 71.175781 38.0625 72.867188 38.0625 C 74.558594 38.0625 76.179688 38.734375 77.375 39.929688 C 78.570312 41.125 79.242188 42.746094 79.242188 44.441406 "/>
<path style=" stroke:none;fill-rule:nonzero;fill:rgb(100%,100%,100%);fill-opacity:1;" d="M 77.117188 44.441406 C 77.117188 45.566406 76.667969 46.648438 75.871094 47.445312 C 75.074219 48.242188 73.992188 48.691406 72.867188 48.691406 C 71.738281 48.691406 70.65625 48.242188 69.859375 47.445312 C 69.0625 46.648438 68.613281 45.566406 68.613281 44.441406 C 68.613281 43.3125 69.0625 42.230469 69.859375 41.433594 C 70.65625 40.636719 71.738281 40.1875 72.867188 40.1875 C 73.992188 40.1875 75.074219 40.636719 75.871094 41.433594 C 76.667969 42.230469 77.117188 43.3125 77.117188 44.441406 "/>
<path style=" stroke:none;fill-rule:nonzero;fill:rgb(0%,0%,0%);fill-opacity:1;" d="M 107.589844 44.441406 C 107.589844 46.132812 106.917969 47.753906 105.722656 48.949219 C 104.527344 50.144531 102.902344 50.816406 101.214844 50.816406 C 99.519531 50.816406 97.898438 50.144531 96.703125 48.949219 C 95.507812 47.753906 94.835938 46.132812 94.835938 44.441406 C 94.835938 42.746094 95.507812 41.125 96.703125 39.929688 C 97.898438 38.734375 99.519531 38.0625 101.214844 38.0625 C 102.902344 38.0625 104.527344 38.734375 105.722656 39.929688 C 106.917969 41.125 107.589844 42.746094 107.589844 44.441406 "/>
<path style=" stroke:none;fill-rule:nonzero;fill:rgb(100%,100%,100%);fill-opacity:1;" d="M 105.464844 44.441406 C 105.464844 45.566406 105.015625 46.648438 104.21875 47.445312 C 103.421875 48.242188 102.339844 48.691406 101.214844 48.691406 C 100.085938 48.691406 99.003906 48.242188 98.207031 47.445312 C 97.410156 46.648438 96.960938 45.566406 96.960938 44.441406 C 96.960938 43.3125 97.410156 42.230469 98.207031 41.433594 C 99.003906 40.636719 100.085938 40.1875 101.214844 40.1875 C 102.339844 40.1875 103.421875 40.636719 104.21875 41.433594 C 105.015625 42.230469 105.464844 43.3125 105.464844 44.441406 "/>
<path style=" stroke:none;fill-rule:nonzero;fill:rgb(0%,0%,0%);fill-opacity:1;" d="M 50.898438 72.785156 C 50.898438 74.476562 50.226562 76.101562 49.03125 77.296875 C 47.832031 78.492188 46.210938 79.164062 44.519531 79.164062 C 42.828125 79.164062 41.207031 78.492188 40.011719 77.296875 C 38.8125 76.101562 38.140625 74.476562 38.140625 72.785156 C 38.140625 71.09375 38.8125 69.472656 40.011719 68.277344 C 41.207031 67.082031 42.828125 66.40625 44.519531 66.40625 C 46.210938 66.40625 47.832031 67.082031 49.03125 68.277344 C 50.226562 69.472656 50.898438 71.09375 50.898438 72.785156 "/>
<path style=" stroke:none;fill-rule:nonzero;fill:rgb(100%,100%,100%);fill-opacity:1;" d="M 48.773438 72.785156 C 48.773438 73.914062 48.324219 74.996094 47.527344 75.792969 C 46.730469 76.589844 45.648438 77.039062 44.519531 77.039062 C 43.390625 77.039062 42.308594 76.589844 41.511719 75.792969 C 40.714844 74.996094 40.269531 73.914062 40.269531 72.785156 C 40.269531 71.65625 40.714844 70.578125 41.511719 69.78125 C 42.308594 68.980469 43.390625 68.535156 44.519531 68.535156 C 45.648438 68.535156 46.730469 68.980469 47.527344 69.78125 C 48.324219 70.578125 48.773438 71.65625 48.773438 72.785156 "/>
<path style=" stroke:none;fill-rule:nonzero;fill:rgb(0%,0%,0%);fill-opacity:1;" d="M 79.242188 72.785156 C 79.242188 74.476562 78.570312 76.101562 77.375 77.296875 C 76.179688 78.492188 74.558594 79.164062 72.867188 79.164062 C 71.175781 79.164062 69.550781 78.492188 68.355469 77.296875 C 67.160156 76.101562 66.488281 74.476562 66.488281 72.785156 C 66.488281 71.09375 67.160156 69.472656 68.355469 68.277344 C 69.550781 67.082031 71.175781 66.40625 72.867188 66.40625 C 74.558594 66.40625 76.179688 67.082031 77.375 68.277344 C 78.570312 69.472656 79.242188 71.09375 79.242188 72.785156 "/>
<path style=" stroke:none;fill-rule:nonzero;fill:rgb(100%,100%,100%);fill-opacity:1;" d="M 77.117188 72.785156 C 77.117188 73.914062 76.667969 74.996094 75.871094 75.792969 C 75.074219 76.589844 73.992188 77.039062 72.867188 77.039062 C 71.738281 77.039062 70.65625 76.589844 69.859375 75.792969 C 69.0625 74.996094 68.613281 73.914062 68.613281 72.785156 C 68.613281 71.65625 69.0625 70.578125 69.859375 69.78125 C 70.65625 68.980469 71.738281 68.535156 72.867188 68.535156 C 73.992188 68.535156 75.074219 68.980469 75.871094 69.78125 C 76.667969 70.578125 77.117188 71.65625 77.117188 72.785156 "/>
<path style=" stroke:none;fill-rule:nonzero;fill:rgb(0%,0%,0%);fill-opacity:1;" d="M 107.589844 72.785156 C 107.589844 74.476562 106.917969 76.101562 105.722656 77.296875 C 104.527344 78.492188 102.902344 79.164062 101.214844 79.164062 C 99.519531 79.164062 97.898438 78.492188 96.703125 77.296875 C 95.507812 76.101562 94.835938 74.476562 94.835938 72.785156 C 94.835938 71.09375 95.507812 69.472656 96.703125 68.277344 C 97.898438 67.082031 99.519531 66.40625 101.214844 66.40625 C 102.902344 66.40625 104.527344 67.082031 105.722656 68.277344 C 106.917969 69.472656 107.589844 71.09375 107.589844 72.785156 "/>
<path style=" stroke:none;fill-rule:nonzero;fill:rgb(100%,100%,100%);fill-opacity:1;" d="M 105.464844 72.785156 C 105.464844 73.914062 105.015625 74.996094 104.21875 75.792969 C 103.421875 76.589844 102.339844 77.039062 101.214844 77.039062 C 100.085938 77.039062 99.003906 76.589844 98.207031 75.792969 C 97.410156 74.996094 96.960938 73.914062 96.960938 72.785156 C 96.960938 71.65625 97.410156 70.578125 98.207031 69.78125 C 99.003906 68.980469 100.085938 68.535156 101.214844 68.535156 C 102.339844 68.535156 103.421875 68.980469 104.21875 69.78125 C 105.015625 70.578125 105.464844 71.65625 105.464844 72.785156 "/>
</g>
</svg>
