<?xml version="1.0" encoding="UTF-8"?>
<svg xmlns="http://www.w3.org/2000/svg" xmlns:xlink="http://www.w3.org/1999/xlink" width="89pt" height="89pt" viewBox="0 0 89 89" version="1.1">
<g id="surface1">
<path style="fill:none;stroke-width:7;stroke-linecap:round;stroke-linejoin:round;stroke:rgb(0%,0%,0%);stroke-opacity:1;stroke-miterlimit:10;" d="M 20 870.390625 L 870.390625 870.390625 " transform="matrix(0.1,0,0,-0.1,0,89)"/>
<path style="fill:none;stroke-width:7;stroke-linecap:round;stroke-linejoin:round;stroke:rgb(0%,0%,0%);stroke-opacity:1;stroke-miterlimit:10;" d="M 20 870.390625 L 20 20 " transform="matrix(0.1,0,0,-0.1,0,89)"/>
<path style="fill:none;stroke-width:7;stroke-linecap:round;stroke-linejoin:round;stroke:rgb(0%,0%,0%);stroke-opacity:1;stroke-miterlimit:10;" d="M 20 586.953125 L 870.390625 586.953125 " transform="matrix(0.1,0,0,-0.1,0,89)"/>
<path style="fill:none;stroke-width:7;stroke-linecap:round;stroke-linejoin:round;stroke:rgb(0%,0%,0%);stroke-opacity:1;stroke-miterlimit:10;" d="M 303.476562 870.390625 L 303.476562 20 " transform="matrix(0.1,0,0,-0.1,0,89)"/>
<path style="fill:none;stroke-width:7;stroke-linecap:round;stroke-linejoin:round;stroke:rgb(0%,0%,0%);stroke-opacity:1;stroke-miterlimit:10;" d="M 20 303.476562 L 870.390625 303.476562 " transform="matrix(0.1,0,0,-0.1,0,89)"/>
<path style="fill:none;stroke-width:7;stroke-linecap:round;stroke-linejoin:round;stroke:rgb(0%,0%,0%);stroke-opacity:1;stroke-miterlimit:10;" d="M 586.914062 870.390625 L 586.914062 20 " transform="matrix(0.1,0,0,-0.1,0,89)"/>
<path style="fill:none;stroke-width:7;stroke-linecap:round;stroke-linejoin:round;stroke:rgb(0%,0%,0%);stroke-opacity:1;stroke-miterlimit:10;" d="M 20 20 L 870.390625 20 " transform="matrix(0.1,0,0,-0.1,0,89)"/>
<path style="fill:none;stroke-width:7;stroke-linecap:round;stroke-linejoin:round;stroke:rgb(0%,0%,0%);stroke-opacity:1;stroke-miterlimit:10;" d="M 870.390625 870.390625 L 870.390625 20 " transform="matrix(0.1,0,0,-0.1,0,89)"/>
<path style="fill:none;stroke-width:28;stroke-linecap:round;stroke-linejoin:round;stroke:rgb(0%,0%,0%);stroke-opacity:1;stroke-miterlimit:10;" d="M 161.71875 728.671875 L 445.195312 728.671875 " transform="matrix(0.1,0,0,-0.1,0,89)"/>
<path style="fill:none;stroke-width:28;stroke-linecap:round;stroke-linejoin:round;stroke:rgb(0%,0%,0%);stroke-opacity:1;stroke-miterlimit:10;" d="M 161.71875 728.671875 L 161.71875 445.195312 " transform="matrix(0.1,0,0,-0.1,0,89)"/>
<path style="fill:none;stroke-width:28;stroke-linecap:round;stroke-linejoin:round;stroke:rgb(0%,0%,0%);stroke-opacity:1;stroke-miterlimit:10;" d="M 445.195312 728.671875 L 161.71875 728.671875 " transform="matrix(0.1,0,0,-0.1,0,89)"/>
<path style="fill:none;stroke-width:28;stroke-linecap:round;stroke-linejoin:round;stroke:rgb(0%,0%,0%);stroke-opacity:1;stroke-miterlimit:10;" d="M 445.195312 728.671875 L 728.671875 728.671875 " transform="matrix(0.1,0,0,-0.1,0,89)"/>
<path style="fill:none;stroke-width:28;stroke-linecap:round;stroke-linejoin:round;stroke:rgb(0%,0%,0%);stroke-opacity:1;stroke-miterlimit:10;" d="M 445.195312 728.671875 L 445.195312 445.195312 " transform="matrix(0.1,0,0,-0.1,0,89)"/>
<path style="fill:none;stroke-width:28;stroke-linecap:round;stroke-linejoin:round;stroke:rgb(0%,0%,0%);stroke-opacity:1;stroke-miterlimit:10;" d="M 728.671875 728.671875 L 445.195312 728.671875 " transform="matrix(0.1,0,0,-0.1,0,89)"/>
<path style="fill:none;stroke-width:28;stroke-linecap:round;stroke-linejoin:round;stroke:rgb(0%,0%,0%);stroke-opacity:1;stroke-miterlimit:10;" d="M 728.671875 728.671875 L 728.671875 445.195312 " transform="matrix(0.1,0,0,-0.1,0,89)"/>
<path style="fill:none;stroke-width:28;stroke-linecap:round;stroke-linejoin:round;stroke:rgb(0%,0%,0%);stroke-opacity:1;stroke-miterlimit:10;" d="M 161.71875 445.195312 L 161.71875 728.671875 " transform="matrix(0.1,0,0,-0.1,0,89)"/>
<path style="fill:none;stroke-width:28;stroke-linecap:round;stroke-linejoin:round;stroke:rgb(0%,0%,0%);stroke-opacity:1;stroke-miterlimit:10;" d="M 161.71875 445.195312 L 445.195312 445.195312 " transform="matrix(0.1,0,0,-0.1,0,89)"/>
<path style="fill:none;stroke-width:28;stroke-linecap:round;stroke-linejoin:round;stroke:rgb(0%,0%,0%);stroke-opacity:1;stroke-miterlimit:10;" d="M 445.195312 445.195312 L 445.195312 728.671875 " transform="matrix(0.1,0,0,-0.1,0,89)"/>
<path style="fill:none;stroke-width:28;stroke-linecap:round;stroke-linejoin:round;stroke:rgb(0%,0%,0%);stroke-opacity:1;stroke-miterlimit:10;" d="M 445.195312 445.195312 L 161.71875 445.195312 " transform="matrix(0.1,0,0,-0.1,0,89)"/>
<path style="fill:none;stroke-width:28;stroke-linecap:round;stroke-linejoin:round;stroke:rgb(0%,0%,0%);stroke-opacity:1;stroke-miterlimit:10;" d="M 445.195312 445.195312 L 728.671875 445.195312 " transform="matrix(0.1,0,0,-0.1,0,89)"/>
<path style="fill:none;stroke-width:28;stroke-linecap:round;stroke-linejoin:round;stroke:rgb(0%,0%,0%);stroke-opacity:1;stroke-miterlimit:10;" d="M 728.671875 445.195312 L 728.671875 728.671875 " transform="matrix(0.1,0,0,-0.1,0,89)"/>
<path style="fill:none;stroke-width:28;stroke-linecap:round;stroke-linejoin:round;stroke:rgb(0%,0%,0%);stroke-opacity:1;stroke-miterlimit:10;" d="M 728.671875 445.195312 L 445.195312 445.195312 " transform="matrix(0.1,0,0,-0.1,0,89)"/>
<path style=" stroke:none;fill-rule:nonzero;fill:rgb(0%,0%,0%);fill-opacity:1;" d="M 22.550781 16.132812 C 22.550781 17.824219 21.878906 19.445312 20.683594 20.644531 C 19.488281 21.839844 17.863281 22.511719 16.171875 22.511719 C 14.480469 22.511719 12.859375 21.839844 11.664062 20.644531 C 10.46875 19.445312 9.796875 17.824219 9.796875 16.132812 C 9.796875 14.441406 10.46875 12.820312 11.664062 11.625 C 12.859375 10.425781 14.480469 9.753906 16.171875 9.753906 C 17.863281 9.753906 19.488281 10.425781 20.683594 11.625 C 21.878906 12.820312 22.550781 14.441406 22.550781 16.132812 "/>
<path style=" stroke:none;fill-rule:nonzero;fill:rgb(100%,100%,100%);fill-opacity:1;" d="M 20.425781 16.132812 C 20.425781 17.261719 19.976562 18.34375 19.179688 19.140625 C 18.382812 19.9375 17.300781 20.386719 16.171875 20.386719 C 15.046875 20.386719 13.964844 19.9375 13.167969 19.140625 C 12.367188 18.34375 11.921875 17.261719 11.921875 16.132812 C 11.921875 15.003906 12.367188 13.925781 13.167969 13.125 C 13.964844 12.328125 15.046875 11.882812 16.171875 11.882812 C 17.300781 11.882812 18.382812 12.328125 19.179688 13.125 C 19.976562 13.925781 20.425781 15.003906 20.425781 16.132812 "/>
<path style=" stroke:none;fill-rule:nonzero;fill:rgb(0%,0%,0%);fill-opacity:1;" d="M 50.898438 16.132812 C 50.898438 17.824219 50.226562 19.445312 49.03125 20.644531 C 47.832031 21.839844 46.210938 22.511719 44.519531 22.511719 C 42.828125 22.511719 41.207031 21.839844 40.011719 20.644531 C 38.8125 19.445312 38.140625 17.824219 38.140625 16.132812 C 38.140625 14.441406 38.8125 12.820312 40.011719 11.625 C 41.207031 10.425781 42.828125 9.753906 44.519531 9.753906 C 46.210938 9.753906 47.832031 10.425781 49.03125 11.625 C 50.226562 12.820312 50.898438 14.441406 50.898438 16.132812 "/>
<path style=" stroke:none;fill-rule:nonzero;fill:rgb(100%,100%,100%);fill-opacity:1;" d="M 48.773438 16.132812 C 48.773438 17.261719 48.324219 18.34375 47.527344 19.140625 C 46.730469 19.9375 45.648438 20.386719 44.519531 20.386719 C 43.390625 20.386719 42.308594 19.9375 41.511719 19.140625 C 40.714844 18.34375 40.269531 17.261719 40.269531 16.132812 C 40.269531 15.003906 40.714844 13.925781 41.511719 13.125 C 42.308594 12.328125 43.390625 11.882812 44.519531 11.882812 C 45.648438 11.882812 46.730469 12.328125 47.527344 13.125 C 48.324219 13.925781 48.773438 15.003906 48.773438 16.132812 "/>
<path style=" stroke:none;fill-rule:nonzero;fill:rgb(0%,0%,0%);fill-opacity:1;" d="M 79.242188 16.132812 C 79.242188 17.824219 78.570312 19.445312 77.375 20.644531 C 76.179688 21.839844 74.558594 22.511719 72.867188 22.511719 C 71.175781 22.511719 69.550781 21.839844 68.355469 20.644531 C 67.160156 19.445312 66.488281 17.824219 66.488281 16.132812 C 66.488281 14.441406 67.160156 12.820312 68.355469 11.625 C 69.550781 10.425781 71.175781 9.753906 72.867188 9.753906 C 74.558594 9.753906 76.179688 10.425781 77.375 11.625 C 78.570312 12.820312 79.242188 14.441406 79.242188 16.132812 "/>
<path style=" stroke:none;fill-rule:nonzero;fill:rgb(100%,100%,100%);fill-opacity:1;" d="M 77.117188 16.132812 C 77.117188 17.261719 76.667969 18.34375 75.871094 19.140625 C 75.074219 19.9375 73.992188 20.386719 72.867188 20.386719 C 71.738281 20.386719 70.65625 19.9375 69.859375 19.140625 C 69.0625 18.34375 68.613281 17.261719 68.613281 16.132812 C 68.613281 15.003906 69.0625 13.925781 69.859375 13.125 C 70.65625 12.328125 71.738281 11.882812 72.867188 11.882812 C 73.992188 11.882812 75.074219 12.328125 75.871094 13.125 C 76.667969 13.925781 77.117188 15.003906 77.117188 16.132812 "/>
<path style=" stroke:none;fill-rule:nonzero;fill:rgb(0%,0%,0%);fill-opacity:1;" d="M 22.550781 44.480469 C 22.550781 46.171875 21.878906 47.792969 20.683594 48.988281 C 19.488281 50.183594 17.863281 50.855469 16.171875 50.855469 C 14.480469 50.855469 12.859375 50.183594 11.664062 48.988281 C 10.46875 47.792969 9.796875 46.171875 9.796875 44.480469 C 9.796875 42.789062 10.46875 41.164062 11.664062 39.96875 C 12.859375 38.773438 14.480469 38.101562 16.171875 38.101562 C 17.863281 38.101562 19.488281 38.773438 20.683594 39.96875 C 21.878906 41.164062 22.550781 42.789062 22.550781 44.480469 "/>
<path style=" stroke:none;fill-rule:nonzero;fill:rgb(100%,100%,100%);fill-opacity:1;" d="M 20.425781 44.480469 C 20.425781 45.605469 19.976562 46.6875 19.179688 47.484375 C 18.382812 48.285156 17.300781 48.730469 16.171875 48.730469 C 15.046875 48.730469 13.964844 48.285156 13.167969 47.484375 C 12.367188 46.6875 11.921875 45.605469 11.921875 44.480469 C 11.921875 43.351562 12.367188 42.269531 13.167969 41.472656 C 13.964844 40.675781 15.046875 40.226562 16.171875 40.226562 C 17.300781 40.226562 18.382812 40.675781 19.179688 41.472656 C 19.976562 42.269531 20.425781 43.351562 20.425781 44.480469 "/>
<path style=" stroke:none;fill-rule:nonzero;fill:rgb(0%,0%,0%);fill-opacity:1;" d="M 50.898438 44.480469 C 50.898438 46.171875 50.226562 47.792969 49.03125 48.988281 C 47.832031 50.183594 46.210938 50.855469 44.519531 50.855469 C 42.828125 50.855469 41.207031 50.183594 40.011719 48.988281 C 38.8125 47.792969 38.140625 46.171875 38.140625 44.480469 C 38.140625 42.789062 38.8125 41.164062 40.011719 39.96875 C 41.207031 38.773438 42.828125 38.101562 44.519531 38.101562 C 46.210938 38.101562 47.832031 38.773438 49.03125 39.96875 C 50.226562 41.164062 50.898438 42.789062 50.898438 44.480469 "/>
<path style=" stroke:none;fill-rule:nonzero;fill:rgb(100%,100%,100%);fill-opacity:1;" d="M 48.773438 44.480469 C 48.773438 45.605469 48.324219 46.6875 47.527344 47.484375 C 46.730469 48.285156 45.648438 48.730469 44.519531 48.730469 C 43.390625 48.730469 42.308594 48.285156 41.511719 47.484375 C 40.714844 46.6875 40.269531 45.605469 40.269531 44.480469 C 40.269531 43.351562 40.714844 42.269531 41.511719 41.472656 C 42.308594 40.675781 43.390625 40.226562 44.519531 40.226562 C 45.648438 40.226562 46.730469 40.675781 47.527344 41.472656 C 48.324219 42.269531 48.773438 43.351562 48.773438 44.480469 "/>
<path style=" stroke:none;fill-rule:nonzero;fill:rgb(0%,0%,0%);fill-opacity:1;" d="M 79.242188 44.480469 C 79.242188 46.171875 78.570312 47.792969 77.375 48.988281 C 76.179688 50.183594 74.558594 50.855469 72.867188 50.855469 C 71.175781 50.855469 69.550781 50.183594 68.355469 48.988281 C 67.160156 47.792969 66.488281 46.171875 66.488281 44.480469 C 66.488281 42.789062 67.160156 41.164062 68.355469 39.96875 C 69.550781 38.773438 71.175781 38.101562 72.867188 38.101562 C 74.558594 38.101562 76.179688 38.773438 77.375 39.96875 C 78.570312 41.164062 79.242188 42.789062 79.242188 44.480469 "/>
<path style=" stroke:none;fill-rule:nonzero;fill:rgb(100%,100%,100%);fill-opacity:1;" d="M 77.117188 44.480469 C 77.117188 45.605469 76.667969 46.6875 75.871094 47.484375 C 75.074219 48.285156 73.992188 48.730469 72.867188 48.730469 C 71.738281 48.730469 70.65625 48.285156 69.859375 47.484375 C 69.0625 46.6875 68.613281 45.605469 68.613281 44.480469 C 68.613281 43.351562 69.0625 42.269531 69.859375 41.472656 C 70.65625 40.675781 71.738281 40.226562 72.867188 40.226562 C 73.992188 40.226562 75.074219 40.675781 75.871094 41.472656 C 76.667969 42.269531 77.117188 43.351562 77.117188 44.480469 "/>
</g>
</svg>
